<svg width="51" height="36" viewBox="0 0 51 36" fill="none" xmlns="http://www.w3.org/2000/svg">
<path d="M50.3364 8.88C48.2061 8.28 47.2759 8.19 47.2759 8.19C46.9159 8.13 45.5056 7.89 43.5853 7.83C42.0551 7.59 40.4648 7.17 39.4146 6.3C38.2744 5.34 36.3541 3.69 35.604 3.3C35.574 3.27 35.544 3.27 35.514 3.27C32.6335 1.2 29.123 0 25.3423 0C21.0216 0 17.091 1.53 14.0305 4.08C13.1604 4.74 12.1102 5.64 11.3901 6.27C10.3399 7.17 8.74963 7.56 7.21939 7.8C5.29907 7.86 3.88884 8.13 3.52878 8.16C3.52878 8.16 2.68865 8.25 0.708324 8.79C-0.161818 9.03 -0.251832 10.23 0.5583 10.62C0.5583 10.62 0.588305 10.62 0.588305 10.65C1.87852 11.28 3.10872 12.3 4.63897 14.73C6.46926 17.61 6.79932 19.44 7.96951 22.2C9.85982 30.12 16.911 36 25.3123 36C33.4137 36 40.2548 30.54 42.4451 23.07C43.9454 19.8 44.1554 17.91 46.1657 14.73C47.696 12.3 48.9262 11.28 50.2164 10.65C50.3064 10.62 50.3964 10.56 50.4864 10.53C51.2366 10.2 51.1465 9.09 50.3364 8.88ZM18.4712 22.74C16.0708 22.08 14.5706 19.86 14.5706 19.86C14.5706 19.86 17.151 17.97 19.5514 18.63C21.9518 19.29 23.272 22.23 23.272 22.23C23.272 22.23 20.8716 23.4 18.4712 22.74ZM32.7535 22.74C30.3532 23.4 27.9528 22.2 27.9528 22.2C27.9528 22.2 29.243 19.26 31.6734 18.6C34.0738 17.94 36.6542 19.83 36.6542 19.83C36.6542 19.83 35.1539 22.11 32.7535 22.74Z" fill="#0010F7"/>
</svg>
