<svg width="20" height="20" viewBox="0 0 18 18" fill="none" xmlns="http://www.w3.org/2000/svg">
<path fill-rule="evenodd" clip-rule="evenodd" d="M15.0736 11.9182L14.0129 10.8575C14.4885 10.3767 14.9257 9.86944 15.3167 9.36234C15.4146 9.23532 15.5052 9.11413 15.5879 9C15.5052 8.88586 15.4146 8.76467 15.3167 8.63765C14.8632 8.04953 14.3476 7.46115 13.782 6.91413C12.2119 5.39578 10.5788 4.5 9.00002 4.5C8.60829 4.5 8.21323 4.55514 7.81661 4.66126L6.63013 3.47478C7.40446 3.16603 8.19531 3 9.00002 3C11.0457 3 13.0018 4.07296 14.8247 5.83586C15.4466 6.43728 16.0093 7.07936 16.5046 7.72171C16.8035 8.10933 17.0157 8.41424 17.1318 8.5959L17.3903 9L17.1318 9.40409C17.0157 9.58575 16.8035 9.89067 16.5046 10.2783C16.0762 10.8338 15.5975 11.3892 15.0736 11.9182L15.0736 11.9182ZM12.7542 13.8148C11.5457 14.5729 10.2907 15 9.00002 15C6.95436 15 4.99826 13.927 3.1753 12.1641C2.55339 11.5627 1.99075 10.9206 1.49545 10.2783C1.19657 9.89067 0.984373 9.58575 0.868191 9.40409L0.609741 9L0.868191 8.5959C0.984373 8.41424 1.19657 8.10933 1.49545 7.72171C1.99075 7.07936 2.55339 6.43728 3.1753 5.83586C3.45326 5.56706 3.73431 5.3143 4.0183 5.07894L0.969687 2.03033L2.03035 0.969666L17.0303 15.9697L15.9697 17.0303L12.7542 13.8148ZM5.08481 6.14545C4.79426 6.37975 4.5051 6.63654 4.21805 6.91413C3.6524 7.46115 3.13681 8.04953 2.68333 8.63765C2.58539 8.76467 2.49488 8.88586 2.41214 9C2.49488 9.11413 2.58539 9.23532 2.68333 9.36234C3.13681 9.95046 3.6524 10.5388 4.21805 11.0859C5.78814 12.6042 7.42121 13.5 9.00002 13.5C9.87614 13.5 10.769 13.2241 11.6585 12.7191L10.524 11.5846C10.0774 11.8485 9.55637 12 9.00002 12C7.34316 12 6.00002 10.6569 6.00002 9C6.00002 8.44364 6.15146 7.92266 6.41538 7.47602L5.08481 6.14545ZM7.55082 8.61146C7.51769 8.73538 7.50002 8.86563 7.50002 9C7.50002 9.82842 8.17159 10.5 9.00002 10.5C9.13439 10.5 9.26463 10.4823 9.38855 10.4492L7.55082 8.61146Z" fill="#636E72"/>
</svg>
