<svg width="20" height="20" viewBox="0 0 18 18" fill="none" xmlns="http://www.w3.org/2000/svg">
<path fill-rule="evenodd" clip-rule="evenodd" d="M9.00002 3C11.0457 3 13.0018 4.07297 14.8247 5.83586C15.4466 6.43729 16.0093 7.07937 16.5046 7.72172C16.8035 8.10933 17.0157 8.41425 17.1318 8.5959L17.3903 9L17.1318 9.4041C17.0157 9.58575 16.8035 9.89067 16.5046 10.2783C16.0093 10.9206 15.4466 11.5627 14.8247 12.1641C13.0018 13.927 11.0457 15 9.00002 15C6.95436 15 4.99826 13.927 3.1753 12.1641C2.55339 11.5627 1.99075 10.9206 1.49545 10.2783C1.19657 9.89067 0.984373 9.58575 0.868191 9.4041L0.609741 9L0.868191 8.5959C0.984373 8.41425 1.19657 8.10933 1.49545 7.72172C1.99075 7.07937 2.55339 6.43729 3.1753 5.83586C4.99826 4.07297 6.95436 3 9.00002 3ZM15.3167 8.63766C14.8632 8.04954 14.3476 7.46115 13.782 6.91414C12.2119 5.39578 10.5788 4.5 9.00002 4.5C7.42121 4.5 5.78814 5.39578 4.21805 6.91414C3.6524 7.46115 3.13681 8.04954 2.68333 8.63766C2.58539 8.76468 2.49488 8.88587 2.41214 9C2.49488 9.11413 2.58539 9.23532 2.68333 9.36234C3.13681 9.95046 3.6524 10.5388 4.21805 11.0859C5.78814 12.6042 7.42121 13.5 9.00002 13.5C10.5788 13.5 12.2119 12.6042 13.782 11.0859C14.3476 10.5388 14.8632 9.95046 15.3167 9.36234C15.4146 9.23532 15.5052 9.11413 15.5879 9C15.5052 8.88587 15.4146 8.76468 15.3167 8.63766ZM9.00002 12C7.34316 12 6.00002 10.6569 6.00002 9C6.00002 7.34315 7.34316 6 9.00002 6C10.6569 6 12 7.34315 12 9C12 10.6569 10.6569 12 9.00002 12ZM9.00002 10.5C9.82844 10.5 10.5 9.82843 10.5 9C10.5 8.17157 9.82844 7.5 9.00002 7.5C8.17159 7.5 7.50002 8.17157 7.50002 9C7.50002 9.82843 8.17159 10.5 9.00002 10.5Z" fill="#636E72"/>
</svg>
